<svg xmlns="http://www.w3.org/2000/svg" viewBox="0 0 224.73 50"><defs><style>.cls-1{fill:#fff;}</style></defs><g id="Layer_2" data-name="Layer 2"><g id="Layer_1-2" data-name="Layer 1"><path class="cls-1" d="M48,48.86V14.7a1.09,1.09,0,0,1,1.09-1.09h8.1a1.09,1.09,0,0,1,1.09,1.09V48.86A1.09,1.09,0,0,1,57.17,50h-8.1A1.09,1.09,0,0,1,48,48.86Z"/><path class="cls-1" d="M112.8,48.86V14.7a1.09,1.09,0,0,1,1.1-1.09H122a1.09,1.09,0,0,1,1.09,1.09V48.86A1.09,1.09,0,0,1,122,50h-8.1A1.09,1.09,0,0,1,112.8,48.86Z"/><path class="cls-1" d="M97.18,26.19h-.4V23.74a2.14,2.14,0,0,0-2.14-2.14H77a1.89,1.89,0,0,0-1.45.45,1.92,1.92,0,0,0-.39,1.3v.9c0,.7.11,1.15.34,1.34a2.9,2.9,0,0,0,1.35.45l22.57,3.15a15.19,15.19,0,0,1,3.64.92,7,7,0,0,1,2.45,1.65,5.78,5.78,0,0,1,1.34,2.52,13.7,13.7,0,0,1,.4,3.54v2.9a13,13,0,0,1-.55,4,6.59,6.59,0,0,1-1.79,2.89,8,8,0,0,1-3.3,1.78,18.11,18.11,0,0,1-5,.6H65.77a1.54,1.54,0,0,1-1.54-1.54V42.06a1.54,1.54,0,0,1,1.54-1.54H93.24A2.36,2.36,0,0,0,95,40.05a2.58,2.58,0,0,0,.42-1.68v-1a2.1,2.1,0,0,0-.32-1.33,2,2,0,0,0-1.28-.47L72,32.83a17.26,17.26,0,0,1-3.77-.9,7.29,7.29,0,0,1-2.57-1.59,5.82,5.82,0,0,1-1.45-2.45,11.62,11.62,0,0,1-.45-3.44V21.9a8.41,8.41,0,0,1,2.1-6.11q2.1-2.17,7-2.18h32.3c1,0,1.54.54,1.54,1.6v6.42a1.54,1.54,0,0,1-1,1.44Z"/><path class="cls-1" d="M173.56,22.07a10.8,10.8,0,0,0-7.1-7.43,20,20,0,0,0-6.87-1H143.41a20.32,20.32,0,0,0-6.8,1l6.52,5.16.86.69,2.82,2.23h11.83c2,0,3.36.43,4.19,1.25s1.25,2.37,1.25,4.59v4.8a22.21,22.21,0,0,1-.22,3.44A5.23,5.23,0,0,1,163,39a3.3,3.3,0,0,1-1.68,1.17,9,9,0,0,1-2.72.35H145.86a18.89,18.89,0,0,1-3.27-.23,4.68,4.68,0,0,1-2.14-.85,3.54,3.54,0,0,1-1.21-1.77,10.34,10.34,0,0,1-.37-3v-4.8c0-1,0-1.82.12-2.56l-8.88-7a11.1,11.1,0,0,0-.72,1.85,25,25,0,0,0-.77,5.65c-.12,2-.18,4.07-.16,6.11,0,4.2.43,8.85,3.39,12.11l.08.09a11.45,11.45,0,0,0,4.6,2.9,20.45,20.45,0,0,0,6.88,1h16.18a20.31,20.31,0,0,0,6.87-1A11.37,11.37,0,0,0,171,46a11.12,11.12,0,0,0,2.54-4.54,20.5,20.5,0,0,0,.81-6V28A20.57,20.57,0,0,0,173.56,22.07Z"/><path class="cls-1" d="M42.43,9.29V20.08c0,12.1-7.67,23.22-20.52,29.75a1.5,1.5,0,0,1-.69.17,1.57,1.57,0,0,1-.7-.17C7.67,43.3,0,32.18,0,20.08V9.29A1.52,1.52,0,0,1,2.6,8.21l6.91,7A1.48,1.48,0,0,1,10,16.29v6.59c0,6.67,4.21,12.94,11.27,16.84,7-3.88,11.26-10.16,11.26-16.84V16.29a1.52,1.52,0,0,1,.44-1.07l1.16-1.17.27-.29,5.49-5.54a1.46,1.46,0,0,1,1.07-.46A1.53,1.53,0,0,1,42.43,9.29Z"/><path class="cls-1" d="M156.71,31.79a5.24,5.24,0,1,1-9.91-2.36l-6.75-5.36-8.17-6.48L121.32,9.23a5.23,5.23,0,1,1,1.86-4,5.05,5.05,0,0,1-.55,2.32l10.87,8.62L142,22.94h0l6.09,4.82a5.24,5.24,0,0,1,8.59,4Z"/><path class="cls-1" d="M224.73,20.85V47.78A2.23,2.23,0,0,1,222.51,50h-5.65a2.22,2.22,0,0,1-2.22-2.22V24a2.23,2.23,0,0,0-2.22-2.23H192.2A2.23,2.23,0,0,0,190,24V47.78A2.22,2.22,0,0,1,187.75,50h-5.64a2.22,2.22,0,0,1-2.22-2.22V13.57h7.92c1.7.15,1.86,1.93,2.14,4.07v0s0,0,0,0c.93-2,2.88-4,5.39-4.08h22.08A7.28,7.28,0,0,1,224.73,20.85Z"/></g></g></svg>