<svg xmlns="http://www.w3.org/2000/svg" viewBox="0 0 287.02 56.38"><g id="Layer_2" data-name="Layer 2"><g id="Layer_1-2" data-name="Layer 1"><path d="M287,56.15h-9.16V22.62a12.64,12.64,0,0,0-25.27,0V56.15h-9.16V22.62a21.8,21.8,0,0,1,43.59,0Z"/><path d="M192.09,52.66a26.64,26.64,0,0,1-10.21-10,28.26,28.26,0,0,1-3.76-14.52,28,28,0,0,1,3.76-14.48,26.74,26.74,0,0,1,10.21-10,29.65,29.65,0,0,1,28.32,0,26.5,26.5,0,0,1,10.17,10,28.31,28.31,0,0,1,3.72,14.48,28.53,28.53,0,0,1-3.72,14.52,26.4,26.4,0,0,1-10.17,10,29.65,29.65,0,0,1-28.32,0Zm23.85-6.73a17.25,17.25,0,0,0,6.69-7.12A22.86,22.86,0,0,0,225,28.09a22.61,22.61,0,0,0-2.41-10.68,17,17,0,0,0-6.69-7,20.47,20.47,0,0,0-19.46,0,17,17,0,0,0-6.69,7,22.61,22.61,0,0,0-2.41,10.68,22.86,22.86,0,0,0,2.41,10.72,17.25,17.25,0,0,0,6.69,7.12,20.26,20.26,0,0,0,19.46,0Z"/><path d="M25.08,48.51,40.93.64h9l-20,55.7H20.05L0,.64H9.14Z"/><polygon points="169.37 0.48 169.37 56.38 58.99 56.38 58.99 0.48 68.17 0.48 68.17 47.22 160.19 47.22 160.19 0.48 169.37 0.48"/><path d="M130.33,41.72v-9a11.67,11.67,0,1,0-11.67-11.67A20.63,20.63,0,1,1,98,.45v9a11.67,11.67,0,1,0,11.66,11.66,20.64,20.64,0,1,1,20.64,20.64Z"/></g></g></svg>