<svg xmlns="http://www.w3.org/2000/svg" viewBox="0 0 224.73 74.69"><defs><style>.cls-1{fill:#0166ff;}.cls-2{fill:#1c1b20;}</style></defs><g id="Layer_2" data-name="Layer 2"><g id="Layer_1-2" data-name="Layer 1"><path class="cls-1" d="M48,48.86V14.7a1.09,1.09,0,0,1,1.09-1.09h8.1a1.09,1.09,0,0,1,1.09,1.09V48.86A1.09,1.09,0,0,1,57.17,50h-8.1A1.09,1.09,0,0,1,48,48.86Z"/><path class="cls-1" d="M112.8,48.86V14.7a1.09,1.09,0,0,1,1.1-1.09H122a1.09,1.09,0,0,1,1.09,1.09V48.86A1.09,1.09,0,0,1,122,50h-8.1A1.09,1.09,0,0,1,112.8,48.86Z"/><path class="cls-1" d="M97.18,26.19h-.4V23.74a2.14,2.14,0,0,0-2.14-2.14H77a1.89,1.89,0,0,0-1.45.45,1.92,1.92,0,0,0-.39,1.3v.9c0,.7.11,1.15.34,1.34a2.9,2.9,0,0,0,1.35.45l22.57,3.15a15.19,15.19,0,0,1,3.64.92,7,7,0,0,1,2.45,1.65,5.78,5.78,0,0,1,1.34,2.52,13.7,13.7,0,0,1,.4,3.54v2.9a13,13,0,0,1-.55,4,6.59,6.59,0,0,1-1.79,2.89,8,8,0,0,1-3.3,1.78,18.11,18.11,0,0,1-5,.6H65.77a1.54,1.54,0,0,1-1.54-1.54V42.06a1.54,1.54,0,0,1,1.54-1.54H93.24A2.36,2.36,0,0,0,95,40.05a2.58,2.58,0,0,0,.42-1.68v-1a2.1,2.1,0,0,0-.32-1.33,2,2,0,0,0-1.28-.47L72,32.83a17.26,17.26,0,0,1-3.77-.9,7.29,7.29,0,0,1-2.57-1.59,5.82,5.82,0,0,1-1.45-2.45,11.62,11.62,0,0,1-.45-3.44V21.9a8.41,8.41,0,0,1,2.1-6.11q2.1-2.17,7-2.18h32.3c1,0,1.54.54,1.54,1.6v6.42a1.54,1.54,0,0,1-1,1.44Z"/><path class="cls-1" d="M173.56,22.07a10.8,10.8,0,0,0-7.1-7.43,20,20,0,0,0-6.87-1H143.41a20.32,20.32,0,0,0-6.8,1l6.52,5.16.86.69,2.82,2.23h11.83c2,0,3.36.43,4.19,1.25s1.25,2.37,1.25,4.59v4.8a22.21,22.21,0,0,1-.22,3.44A5.23,5.23,0,0,1,163,39a3.3,3.3,0,0,1-1.68,1.17,9,9,0,0,1-2.72.35H145.86a18.89,18.89,0,0,1-3.27-.23,4.68,4.68,0,0,1-2.14-.85,3.54,3.54,0,0,1-1.21-1.77,10.34,10.34,0,0,1-.37-3v-4.8c0-1,0-1.82.12-2.56l-8.88-7a11.1,11.1,0,0,0-.72,1.85,25,25,0,0,0-.77,5.65c-.12,2-.18,4.07-.16,6.11,0,4.2.43,8.85,3.39,12.11l.08.09a11.45,11.45,0,0,0,4.6,2.9,20.45,20.45,0,0,0,6.88,1h16.18a20.31,20.31,0,0,0,6.87-1A11.37,11.37,0,0,0,171,46a11.12,11.12,0,0,0,2.54-4.54,20.5,20.5,0,0,0,.81-6V28A20.57,20.57,0,0,0,173.56,22.07Z"/><path class="cls-1" d="M42.43,9.29V20.08c0,12.1-7.67,23.22-20.52,29.75a1.5,1.5,0,0,1-.69.17,1.57,1.57,0,0,1-.7-.17C7.67,43.3,0,32.18,0,20.08V9.29A1.52,1.52,0,0,1,2.6,8.21l6.91,7A1.48,1.48,0,0,1,10,16.29v6.59c0,6.67,4.21,12.94,11.27,16.84,7-3.88,11.26-10.16,11.26-16.84V16.29a1.52,1.52,0,0,1,.44-1.07l1.16-1.17.27-.29,5.49-5.54a1.46,1.46,0,0,1,1.07-.46A1.53,1.53,0,0,1,42.43,9.29Z"/><path class="cls-1" d="M156.71,31.79a5.24,5.24,0,1,1-9.91-2.36l-6.75-5.36-8.17-6.48L121.32,9.23a5.23,5.23,0,1,1,1.86-4,5.05,5.05,0,0,1-.55,2.32l10.87,8.62L142,22.94h0l6.09,4.82a5.24,5.24,0,0,1,8.59,4Z"/><path class="cls-1" d="M224.73,20.85V47.78A2.23,2.23,0,0,1,222.51,50h-5.65a2.22,2.22,0,0,1-2.22-2.22V24a2.23,2.23,0,0,0-2.22-2.23H192.2A2.23,2.23,0,0,0,190,24V47.78A2.22,2.22,0,0,1,187.75,50h-5.64a2.22,2.22,0,0,1-2.22-2.22V13.57h7.92c1.7.15,1.86,1.93,2.14,4.07v0s0,0,0,0c.93-2,2.88-4,5.39-4.08h22.08A7.28,7.28,0,0,1,224.73,20.85Z"/><path class="cls-2" d="M23,66.49v8.12H21.71V66.49Z"/><path class="cls-2" d="M31.38,74.61H30l-4-6.06v6.06H24.71V66.48H26l4,6v-6h1.34Z"/><path class="cls-2" d="M38.7,66.49v1.09H36.54v7H35.21v-7H33V66.49Z"/><path class="cls-2" d="M41.7,67.57V70h2.8V71H41.7v2.49h3.15v1.09H40.37V66.48h4.48v1.09Z"/><path class="cls-2" d="M52.83,68.83a2.15,2.15,0,0,0-.87-.92,2.74,2.74,0,0,0-1.3-.31,2.85,2.85,0,0,0-1.44.36,2.63,2.63,0,0,0-1,1,3.18,3.18,0,0,0-.36,1.54,3.22,3.22,0,0,0,.36,1.55,2.5,2.5,0,0,0,1,1,2.85,2.85,0,0,0,1.44.36,2.56,2.56,0,0,0,1.76-.6,2.67,2.67,0,0,0,.83-1.65h-3V70.16h4.47v1A4,4,0,0,1,54,72.94a4,4,0,0,1-3.34,1.74,4.24,4.24,0,0,1-2.09-.53,4,4,0,0,1-1.5-1.48,4.42,4.42,0,0,1,0-4.27,3.9,3.9,0,0,1,1.51-1.48,4.21,4.21,0,0,1,2.08-.53A4.31,4.31,0,0,1,53,67a3.64,3.64,0,0,1,1.46,1.81Z"/><path class="cls-2" d="M60.56,74.61l-1.87-3.25h-1v3.25H56.34V66.49h2.8a3.42,3.42,0,0,1,1.58.33,2.2,2.2,0,0,1,1,.88A2.29,2.29,0,0,1,62,68.92a2.4,2.4,0,0,1-.46,1.44,2.26,2.26,0,0,1-1.42.88l2,3.37ZM57.67,70.3h1.47a1.58,1.58,0,0,0,1.13-.37,1.37,1.37,0,0,0,.38-1,1.34,1.34,0,0,0-.37-1,1.64,1.64,0,0,0-1.14-.35H57.67Z"/><path class="cls-2" d="M69.18,73h-3.4l-.58,1.66H63.81l2.91-8.13h1.54l2.9,8.13h-1.4Zm-.38-1.09-1.31-3.77-1.34,3.77Z"/><path class="cls-2" d="M78.49,66.49v1.09H76.33v7H75v-7H72.83V66.49Z"/><path class="cls-2" d="M81.49,67.57V70h2.8V71h-2.8v2.49h3.15v1.09H80.16V66.48h4.48v1.09Z"/><path class="cls-2" d="M91.22,67a3.57,3.57,0,0,1,1.51,1.42,4.33,4.33,0,0,1,.53,2.17,4.26,4.26,0,0,1-.53,2.15,3.56,3.56,0,0,1-1.51,1.39,5.06,5.06,0,0,1-2.27.49H86.3V66.49H89A4.93,4.93,0,0,1,91.22,67Zm-.08,5.76a3,3,0,0,0,.75-2.17,3.1,3.1,0,0,0-.75-2.21A2.9,2.9,0,0,0,89,67.58H87.63v5.94H89A3,3,0,0,0,91.14,72.75Z"/><path class="cls-2" d="M99.52,74.4a2.4,2.4,0,0,1-1-.81,2,2,0,0,1-.37-1.22h1.42a1.29,1.29,0,0,0,.42.86,1.49,1.49,0,0,0,1,.34,1.53,1.53,0,0,0,1.07-.34,1.06,1.06,0,0,0,.39-.85.93.93,0,0,0-.24-.67,1.71,1.71,0,0,0-.6-.4,9.42,9.42,0,0,0-1-.3,9.81,9.81,0,0,1-1.29-.42,2.14,2.14,0,0,1-.85-.68,1.93,1.93,0,0,1-.35-1.21,2.19,2.19,0,0,1,.35-1.23,2.23,2.23,0,0,1,1-.8,3.52,3.52,0,0,1,1.46-.28,3,3,0,0,1,1.93.59,2.19,2.19,0,0,1,.84,1.61h-1.47a1.11,1.11,0,0,0-.42-.75,1.58,1.58,0,0,0-1-.32,1.46,1.46,0,0,0-.93.29,1,1,0,0,0-.37.84.88.88,0,0,0,.23.62,1.72,1.72,0,0,0,.58.38,9.58,9.58,0,0,0,1,.3,10.43,10.43,0,0,1,1.31.44,2.13,2.13,0,0,1,.86.69,1.92,1.92,0,0,1,.36,1.23,2.19,2.19,0,0,1-.33,1.16,2.47,2.47,0,0,1-1,.89,3.25,3.25,0,0,1-1.5.33A3.6,3.6,0,0,1,99.52,74.4Z"/><path class="cls-2" d="M106.84,67.57V70h2.8V71h-2.8v2.49H110v1.09h-4.48V66.48H110v1.09Z"/><path class="cls-2" d="M112.27,68.4a4,4,0,0,1,1.5-1.48,4.45,4.45,0,0,1,4.39.1,3.72,3.72,0,0,1,1.47,1.81H118a2.11,2.11,0,0,0-.88-1,2.57,2.57,0,0,0-1.29-.31,2.85,2.85,0,0,0-1.44.36,2.55,2.55,0,0,0-1,1,3.4,3.4,0,0,0-.35,1.57,3.44,3.44,0,0,0,.35,1.58,2.55,2.55,0,0,0,1,1,2.76,2.76,0,0,0,1.44.37,2.57,2.57,0,0,0,1.29-.31,2.11,2.11,0,0,0,.88-1h1.6a3.65,3.65,0,0,1-1.47,1.8,4.45,4.45,0,0,1-4.39.1,4,4,0,0,1-1.5-1.48,4.35,4.35,0,0,1,0-4.27Z"/><path class="cls-2" d="M122.68,66.49v5.17a1.66,1.66,0,0,0,1.83,1.86,1.89,1.89,0,0,0,1.36-.47,1.85,1.85,0,0,0,.48-1.39V66.49h1.33v5.15a3.09,3.09,0,0,1-.43,1.68,2.72,2.72,0,0,1-1.15,1,3.86,3.86,0,0,1-1.6.34,3.79,3.79,0,0,1-1.6-.34,2.67,2.67,0,0,1-1.13-1,3.17,3.17,0,0,1-.42-1.68V66.49Z"/><path class="cls-2" d="M133.62,74.61l-1.87-3.25h-1v3.25H129.4V66.49h2.8a3.49,3.49,0,0,1,1.59.33,2.31,2.31,0,0,1,1,.88,2.39,2.39,0,0,1,.32,1.22,2.47,2.47,0,0,1-.46,1.44,2.31,2.31,0,0,1-1.42.88l2,3.37Zm-2.89-4.31h1.47a1.58,1.58,0,0,0,1.13-.37,1.37,1.37,0,0,0,.38-1,1.3,1.3,0,0,0-.37-1,1.64,1.64,0,0,0-1.14-.35h-1.47Z"/><path class="cls-2" d="M138.25,66.49v8.12h-1.33V66.49Z"/><path class="cls-2" d="M145.63,66.49v1.09h-2.15v7h-1.34v-7H140V66.49Z"/><path class="cls-2" d="M154.07,66.49l-2.69,5.17v3h-1.33v-3l-2.7-5.17h1.49l1.88,4,1.88-4Z"/><path class="cls-2" d="M160.06,74.4a2.4,2.4,0,0,1-1-.81,2,2,0,0,1-.37-1.22h1.42a1.32,1.32,0,0,0,.41.86,1.51,1.51,0,0,0,1,.34,1.55,1.55,0,0,0,1.07-.34,1.06,1.06,0,0,0,.39-.85.93.93,0,0,0-.24-.67,1.71,1.71,0,0,0-.6-.4c-.24-.09-.56-.19-1-.3a9.81,9.81,0,0,1-1.29-.42,2.08,2.08,0,0,1-.85-.68,1.87,1.87,0,0,1-.35-1.21,2.12,2.12,0,0,1,.35-1.23,2.23,2.23,0,0,1,1-.8,3.49,3.49,0,0,1,1.46-.28,3,3,0,0,1,1.93.59,2.15,2.15,0,0,1,.83,1.61h-1.47a1,1,0,0,0-.42-.75,1.53,1.53,0,0,0-1-.32,1.5,1.5,0,0,0-.94.29,1,1,0,0,0-.36.84.88.88,0,0,0,.23.62,1.63,1.63,0,0,0,.58.38c.23.09.55.19.95.3a10.11,10.11,0,0,1,1.32.44,2.2,2.2,0,0,1,.86.69,1.92,1.92,0,0,1,.36,1.23,2.12,2.12,0,0,1-.34,1.16,2.44,2.44,0,0,1-1,.89,3.25,3.25,0,0,1-1.5.33A3.6,3.6,0,0,1,160.06,74.4Z"/><path class="cls-2" d="M172.56,66.49l-2.68,5.17v3h-1.33v-3l-2.7-5.17h1.48l1.88,4,1.88-4Z"/><path class="cls-2" d="M175.49,74.4a2.4,2.4,0,0,1-1-.81,2,2,0,0,1-.37-1.22h1.42a1.32,1.32,0,0,0,.41.86,1.51,1.51,0,0,0,1,.34,1.55,1.55,0,0,0,1.07-.34,1.06,1.06,0,0,0,.39-.85.93.93,0,0,0-.24-.67,1.71,1.71,0,0,0-.6-.4c-.24-.09-.56-.19-1-.3a9.81,9.81,0,0,1-1.29-.42,2.08,2.08,0,0,1-.85-.68,1.87,1.87,0,0,1-.35-1.21,2.12,2.12,0,0,1,.35-1.23,2.23,2.23,0,0,1,1-.8,3.49,3.49,0,0,1,1.46-.28,3,3,0,0,1,1.93.59,2.15,2.15,0,0,1,.83,1.61h-1.47a1,1,0,0,0-.42-.75,1.53,1.53,0,0,0-1-.32,1.5,1.5,0,0,0-.94.29,1,1,0,0,0-.36.84.88.88,0,0,0,.23.62,1.72,1.72,0,0,0,.58.38c.23.09.55.19.95.3a10.11,10.11,0,0,1,1.32.44,2.2,2.2,0,0,1,.86.69,1.92,1.92,0,0,1,.36,1.23,2.12,2.12,0,0,1-.34,1.16,2.44,2.44,0,0,1-1,.89,3.25,3.25,0,0,1-1.5.33A3.6,3.6,0,0,1,175.49,74.4Z"/><path class="cls-2" d="M186.94,66.49v1.09h-2.16v7h-1.33v-7h-2.17V66.49Z"/><path class="cls-2" d="M189.8,67.57V70h2.8V71h-2.8v2.49H193v1.09h-4.48V66.48H193v1.09Z"/><path class="cls-2" d="M203,66.49v8.12h-1.33V69.05l-2.47,5.56h-.92l-2.49-5.56v5.56h-1.33V66.49h1.43l2.85,6.37,2.84-6.37Z"/></g></g></svg>